# xmcd CD database file
#
# Track frame offsets:
#	182
#	11047
#	26425
#	46150
#	62517
#	84715
#	103497
#	120165
#	133510
#	150542
#
# Disc length: 2230 seconds
#
# Revision: 2
# Processed by: cddbd v1.4PL0 Copyright (c) Steve Scherf et al.
# Submitted via: CDex 1.50beta10
#
DISCID=7508b40a
DTITLE=Midsouth - Midsouth
DYEAR=1996
DGENRE=Country
TTITLE0=The Definition Of Love
TTITLE1=Fall Reaching
TTITLE2=Above And Beyond
TTITLE3=She Knows
TTITLE4=Across The Miles
TTITLE5=Heaven Is Smiling
TTITLE6=Love Still Does
TTITLE7=Puttin' The Ax (To The Root Of My Troubles)
TTITLE8=I Wouldn't Trade The World
TTITLE9=Back In My Hometown
EXTD=YEAR: 1996
EXTT0=
EXTT1=
EXTT2=
EXTT3=
EXTT4=
EXTT5=
EXTT6=
EXTT7=
EXTT8=
EXTT9=
PLAYORDER=
